<?xml version="1.0" encoding="UTF-8" standalone="no"?>
<!DOCTYPE svg PUBLIC "-//W3C//DTD SVG 1.1//EN"
 "http://www.w3.org/Graphics/SVG/1.1/DTD/svg11.dtd">
<!-- Generated by graphviz version 3.0.0 (20220226.1711)
 -->
<!-- Title: G Pages: 1 -->
<svg width="443pt" height="338pt"
 viewBox="0.00 0.00 532.01 405.00" xmlns="http://www.w3.org/2000/svg" xmlns:xlink="http://www.w3.org/1999/xlink">
<g id="graph0" class="graph" transform="scale(0.833333 0.833333) rotate(0) translate(4 401)">
<title>G</title>
<polygon fill="white" stroke="transparent" points="-4,4 -4,-401 528.01,-401 528.01,4 -4,4"/>
<!-- 5268732032 -->
<g id="node1" class="node">
<title>5268732032</title>
<polygon fill="none" stroke="black" points="0,-346.9 0,-396.5 233.83,-396.5 233.83,-346.9 0,-346.9"/>
<text text-anchor="middle" x="39.1" y="-379.9" font-family="Times,serif" font-size="14.00">input</text>
<polyline fill="none" stroke="black" points="0,-371.7 78.19,-371.7 "/>
<text text-anchor="middle" x="39.1" y="-355.1" font-family="Times,serif" font-size="14.00">InputLayer</text>
<polyline fill="none" stroke="black" points="78.19,-346.9 78.19,-396.5 "/>
<text text-anchor="middle" x="106.03" y="-379.9" font-family="Times,serif" font-size="14.00">input:</text>
<polyline fill="none" stroke="black" points="78.19,-371.7 133.86,-371.7 "/>
<text text-anchor="middle" x="106.03" y="-355.1" font-family="Times,serif" font-size="14.00">output:</text>
<polyline fill="none" stroke="black" points="133.86,-346.9 133.86,-396.5 "/>
<text text-anchor="middle" x="183.85" y="-379.9" font-family="Times,serif" font-size="14.00">[(None, 20, 3)]</text>
<polyline fill="none" stroke="black" points="133.86,-371.7 233.83,-371.7 "/>
<text text-anchor="middle" x="183.85" y="-355.1" font-family="Times,serif" font-size="14.00">[(None, 20, 3)]</text>
</g>
<!-- 5268876832 -->
<g id="node2" class="node">
<title>5268876832</title>
<polygon fill="none" stroke="black" points="12.03,-260.3 12.03,-309.9 221.8,-309.9 221.8,-260.3 12.03,-260.3"/>
<text text-anchor="middle" x="43.76" y="-293.3" font-family="Times,serif" font-size="14.00">conv1d</text>
<polyline fill="none" stroke="black" points="12.03,-285.1 75.48,-285.1 "/>
<text text-anchor="middle" x="43.76" y="-268.5" font-family="Times,serif" font-size="14.00">Conv1D</text>
<polyline fill="none" stroke="black" points="75.48,-260.3 75.48,-309.9 "/>
<text text-anchor="middle" x="103.32" y="-293.3" font-family="Times,serif" font-size="14.00">input:</text>
<polyline fill="none" stroke="black" points="75.48,-285.1 131.15,-285.1 "/>
<text text-anchor="middle" x="103.32" y="-268.5" font-family="Times,serif" font-size="14.00">output:</text>
<polyline fill="none" stroke="black" points="131.15,-260.3 131.15,-309.9 "/>
<text text-anchor="middle" x="176.48" y="-293.3" font-family="Times,serif" font-size="14.00">(None, 20, 3)</text>
<polyline fill="none" stroke="black" points="131.15,-285.1 221.8,-285.1 "/>
<text text-anchor="middle" x="176.48" y="-268.5" font-family="Times,serif" font-size="14.00">(None, 1, 8)</text>
</g>
<!-- 5268732032&#45;&gt;5268876832 -->
<g id="edge1" class="edge">
<title>5268732032&#45;&gt;5268876832</title>
<path fill="none" stroke="black" d="M116.92,-346.68C116.92,-338.47 116.92,-329.11 116.92,-320.25"/>
<polygon fill="black" stroke="black" points="120.42,-320.18 116.92,-310.18 113.42,-320.18 120.42,-320.18"/>
</g>
<!-- 5269402048 -->
<g id="node4" class="node">
<title>5269402048</title>
<polygon fill="none" stroke="black" points="19.82,-173.7 19.82,-223.3 214.02,-223.3 214.02,-173.7 19.82,-173.7"/>
<text text-anchor="middle" x="47.26" y="-206.7" font-family="Times,serif" font-size="14.00">flatten</text>
<polyline fill="none" stroke="black" points="19.82,-198.5 74.7,-198.5 "/>
<text text-anchor="middle" x="47.26" y="-181.9" font-family="Times,serif" font-size="14.00">Flatten</text>
<polyline fill="none" stroke="black" points="74.7,-173.7 74.7,-223.3 "/>
<text text-anchor="middle" x="102.53" y="-206.7" font-family="Times,serif" font-size="14.00">input:</text>
<polyline fill="none" stroke="black" points="74.7,-198.5 130.37,-198.5 "/>
<text text-anchor="middle" x="102.53" y="-181.9" font-family="Times,serif" font-size="14.00">output:</text>
<polyline fill="none" stroke="black" points="130.37,-173.7 130.37,-223.3 "/>
<text text-anchor="middle" x="172.19" y="-206.7" font-family="Times,serif" font-size="14.00">(None, 1, 8)</text>
<polyline fill="none" stroke="black" points="130.37,-198.5 214.02,-198.5 "/>
<text text-anchor="middle" x="172.19" y="-181.9" font-family="Times,serif" font-size="14.00">(None, 8)</text>
</g>
<!-- 5268876832&#45;&gt;5269402048 -->
<g id="edge2" class="edge">
<title>5268876832&#45;&gt;5269402048</title>
<path fill="none" stroke="black" d="M116.92,-260.08C116.92,-251.87 116.92,-242.51 116.92,-233.65"/>
<polygon fill="black" stroke="black" points="120.42,-233.58 116.92,-223.58 113.42,-233.58 120.42,-233.58"/>
</g>
<!-- 5269404976 -->
<g id="node3" class="node">
<title>5269404976</title>
<polygon fill="none" stroke="black" points="261,-260.3 261,-309.9 494.83,-309.9 494.83,-260.3 261,-260.3"/>
<text text-anchor="middle" x="300.1" y="-293.3" font-family="Times,serif" font-size="14.00">memory</text>
<polyline fill="none" stroke="black" points="261,-285.1 339.19,-285.1 "/>
<text text-anchor="middle" x="300.1" y="-268.5" font-family="Times,serif" font-size="14.00">InputLayer</text>
<polyline fill="none" stroke="black" points="339.19,-260.3 339.19,-309.9 "/>
<text text-anchor="middle" x="367.03" y="-293.3" font-family="Times,serif" font-size="14.00">input:</text>
<polyline fill="none" stroke="black" points="339.19,-285.1 394.86,-285.1 "/>
<text text-anchor="middle" x="367.03" y="-268.5" font-family="Times,serif" font-size="14.00">output:</text>
<polyline fill="none" stroke="black" points="394.86,-260.3 394.86,-309.9 "/>
<text text-anchor="middle" x="444.85" y="-293.3" font-family="Times,serif" font-size="14.00">[(None, 15, 1)]</text>
<polyline fill="none" stroke="black" points="394.86,-285.1 494.83,-285.1 "/>
<text text-anchor="middle" x="444.85" y="-268.5" font-family="Times,serif" font-size="14.00">[(None, 15, 1)]</text>
</g>
<!-- 5276500944 -->
<g id="node5" class="node">
<title>5276500944</title>
<polygon fill="none" stroke="black" points="231.82,-173.7 231.82,-223.3 524.01,-223.3 524.01,-173.7 231.82,-173.7"/>
<text text-anchor="middle" x="304.76" y="-206.7" font-family="Times,serif" font-size="14.00">global_max_pooling1d</text>
<polyline fill="none" stroke="black" points="231.82,-198.5 377.7,-198.5 "/>
<text text-anchor="middle" x="304.76" y="-181.9" font-family="Times,serif" font-size="14.00">GlobalMaxPooling1D</text>
<polyline fill="none" stroke="black" points="377.7,-173.7 377.7,-223.3 "/>
<text text-anchor="middle" x="405.53" y="-206.7" font-family="Times,serif" font-size="14.00">input:</text>
<polyline fill="none" stroke="black" points="377.7,-198.5 433.37,-198.5 "/>
<text text-anchor="middle" x="405.53" y="-181.9" font-family="Times,serif" font-size="14.00">output:</text>
<polyline fill="none" stroke="black" points="433.37,-173.7 433.37,-223.3 "/>
<text text-anchor="middle" x="478.69" y="-206.7" font-family="Times,serif" font-size="14.00">(None, 15, 1)</text>
<polyline fill="none" stroke="black" points="433.37,-198.5 524.01,-198.5 "/>
<text text-anchor="middle" x="478.69" y="-181.9" font-family="Times,serif" font-size="14.00">(None, 1)</text>
</g>
<!-- 5269404976&#45;&gt;5276500944 -->
<g id="edge3" class="edge">
<title>5269404976&#45;&gt;5276500944</title>
<path fill="none" stroke="black" d="M377.92,-260.08C377.92,-251.87 377.92,-242.51 377.92,-233.65"/>
<polygon fill="black" stroke="black" points="381.42,-233.58 377.92,-223.58 374.42,-233.58 381.42,-233.58"/>
</g>
<!-- 5276501616 -->
<g id="node6" class="node">
<title>5276501616</title>
<polygon fill="none" stroke="black" points="106.68,-87.1 106.68,-136.7 387.16,-136.7 387.16,-87.1 106.68,-87.1"/>
<text text-anchor="middle" x="149.27" y="-120.1" font-family="Times,serif" font-size="14.00">concatenate</text>
<polyline fill="none" stroke="black" points="106.68,-111.9 191.87,-111.9 "/>
<text text-anchor="middle" x="149.27" y="-95.3" font-family="Times,serif" font-size="14.00">Concatenate</text>
<polyline fill="none" stroke="black" points="191.87,-87.1 191.87,-136.7 "/>
<text text-anchor="middle" x="219.7" y="-120.1" font-family="Times,serif" font-size="14.00">input:</text>
<polyline fill="none" stroke="black" points="191.87,-111.9 247.53,-111.9 "/>
<text text-anchor="middle" x="219.7" y="-95.3" font-family="Times,serif" font-size="14.00">output:</text>
<polyline fill="none" stroke="black" points="247.53,-87.1 247.53,-136.7 "/>
<text text-anchor="middle" x="317.35" y="-120.1" font-family="Times,serif" font-size="14.00">[(None, 8), (None, 1)]</text>
<polyline fill="none" stroke="black" points="247.53,-111.9 387.16,-111.9 "/>
<text text-anchor="middle" x="316.86" y="-95.3" font-family="Times,serif" font-size="14.00">(None, 9)</text>
</g>
<!-- 5269402048&#45;&gt;5276501616 -->
<g id="edge4" class="edge">
<title>5269402048&#45;&gt;5276501616</title>
<path fill="none" stroke="black" d="M153.82,-173.48C168.64,-163.84 185.88,-152.62 201.46,-142.48"/>
<polygon fill="black" stroke="black" points="203.45,-145.36 209.92,-136.98 199.63,-139.5 203.45,-145.36"/>
</g>
<!-- 5276500944&#45;&gt;5276501616 -->
<g id="edge5" class="edge">
<title>5276500944&#45;&gt;5276501616</title>
<path fill="none" stroke="black" d="M340.73,-173.48C325.79,-163.84 308.43,-152.62 292.73,-142.48"/>
<polygon fill="black" stroke="black" points="294.5,-139.46 284.2,-136.98 290.7,-145.34 294.5,-139.46"/>
</g>
<!-- 5276562960 -->
<g id="node7" class="node">
<title>5276562960</title>
<polygon fill="none" stroke="black" points="158.37,-0.5 158.37,-50.1 335.47,-50.1 335.47,-0.5 158.37,-0.5"/>
<text text-anchor="middle" x="184.26" y="-33.5" font-family="Times,serif" font-size="14.00">output</text>
<polyline fill="none" stroke="black" points="158.37,-25.3 210.15,-25.3 "/>
<text text-anchor="middle" x="184.26" y="-8.7" font-family="Times,serif" font-size="14.00">Dense</text>
<polyline fill="none" stroke="black" points="210.15,-0.5 210.15,-50.1 "/>
<text text-anchor="middle" x="237.98" y="-33.5" font-family="Times,serif" font-size="14.00">input:</text>
<polyline fill="none" stroke="black" points="210.15,-25.3 265.82,-25.3 "/>
<text text-anchor="middle" x="237.98" y="-8.7" font-family="Times,serif" font-size="14.00">output:</text>
<polyline fill="none" stroke="black" points="265.82,-0.5 265.82,-50.1 "/>
<text text-anchor="middle" x="300.64" y="-33.5" font-family="Times,serif" font-size="14.00">(None, 9)</text>
<polyline fill="none" stroke="black" points="265.82,-25.3 335.47,-25.3 "/>
<text text-anchor="middle" x="300.64" y="-8.7" font-family="Times,serif" font-size="14.00">(None, 2)</text>
</g>
<!-- 5276501616&#45;&gt;5276562960 -->
<g id="edge6" class="edge">
<title>5276501616&#45;&gt;5276562960</title>
<path fill="none" stroke="black" d="M246.92,-86.88C246.92,-78.67 246.92,-69.31 246.92,-60.45"/>
<polygon fill="black" stroke="black" points="250.42,-60.38 246.92,-50.38 243.42,-60.38 250.42,-60.38"/>
</g>
</g>
</svg>
